<svg xmlns="http://www.w3.org/2000/svg" viewBox="0 0 596.68 688.92"><defs><style>.cls-1{fill:#b47796;}.cls-2{fill:#fade70;}</style></defs><g id="Layer_2" data-name="Layer 2"><g id="Layer_1-2" data-name="Layer 1"><path class="cls-1" d="M4.49,688.92S6.43,295,.1,151a44.65,44.65,0,0,1,9-29.26c16.67-21.63,41.13-9.56,87.27,16.17C152,169,275,212.83,342,173.42s189.41-101.81,239.9,6.33S558.71,628.8,286,668.57C180.14,684,4.49,688.92,4.49,688.92Z"/><path class="cls-2" d="M181.24,117.41c-10.17,22.31-118.1,164.1-170.55,260.52,31.82,64.31,49.82,89,143,118.61,0,0,182.41-185.29,213.93-213.92,35.56-31.51,50.84-32.21,80.82-70.2C397.28,125.88,311.5,53.87,219.36,22.1,198.5,57.43,191.41,95.11,181.24,117.41Z"/><path d="M445.41,205.21l-60.76,50.65-2.94-3.56L427,210.19c-36.9-26.79-75.11-51.91-110.24-80.77s-67.4-61.63-101-92.81L183,90.7,179.05,89c3.53-7.21,6.68-14.65,10.7-21.57,5.43-9.35,12.87-17.76,16.89-27.61,2.83-6.92,1.4-15.58,1.92-24.19,9.22-1.19,120.16,71.69,133.1,92.74L223,26C236.24,59.76,392.16,186.92,434.55,200.6c-7.8-8.54-13.68-15.28-19.89-21.72-9.9-10.26-19.8-20.55-30.2-30.29-2-1.88-6.37-1.91-9.55-1.65-2.78.23-5.41,2.09-8.11,3.23L365,147.22l121.82-115C479.15,25.51,473,19.41,466,14.4c-2-1.45-7.4-1-9.38.69Q434.39,34.29,413,54.43c-14.73,13.87-29,28.22-43.58,42.28q-14.19,13.71-28.6,27.17a84.83,84.83,0,0,1-7.56,5.69L330.49,127c3.92-4.68,7.45-9.77,11.84-14C367.91,88.7,393.72,64.56,419.4,40.3,432,28.41,445.05,17,456.73,4.26c5.66-6.16,10-4.76,15.09-1.33a212,212,0,0,1,20.72,15.46c5.59,4.87,8.4,10.38,1.06,17-17,15.43-33.53,31.38-50.31,47.05-18.38,17.16-37,34.09-55,51.57-1.53,1.48-1.15,7.59.59,9.35,13.16,13.39,27.33,25.79,40.24,39.4C436,190.09,441.09,199.16,445.41,205.21Z"/><path d="M137.15,487.87l231.38-225,2.18,2.27C367.29,273.7,148.15,490,137.15,487.87Z"/><path d="M0,372.08c55.31-89.71,113.59-177.77,172.48-268.35C172.56,116.61,19.45,355.77,0,372.08Z"/><path d="M353.19,254.53C288.72,222.2,233.88,178,190.63,119.81,237.41,173.55,292.63,217.1,353.19,254.53Z"/><path d="M13.12,389.5c34,35.81,71.29,67.72,113.73,93.47C80,462.81,41.32,432.69,13.12,389.5Z"/><path d="M59.58,371.91a19.76,19.76,0,1,1,15.9-31.47h0a19.75,19.75,0,0,1-15.9,31.47Zm0-36.52a16.77,16.77,0,1,0,13.52,6.83A16.69,16.69,0,0,0,59.54,335.39Z"/><path d="M132.24,374.72a24.8,24.8,0,1,1,24.8-24.8A24.83,24.83,0,0,1,132.24,374.72Zm0-46.6a21.8,21.8,0,1,0,21.8,21.8A21.83,21.83,0,0,0,132.24,328.12Z"/><path d="M76.82,419.52a22,22,0,1,1,22.05-22A22.07,22.07,0,0,1,76.82,419.52Zm0-41.1a19.05,19.05,0,1,0,19.05,19.05A19.07,19.07,0,0,0,76.82,378.42Z"/><path d="M187.13,394.13a22,22,0,1,1,22.05-22.05A22.07,22.07,0,0,1,187.13,394.13Zm0-41.09a19,19,0,1,0,19.05,19A19.06,19.06,0,0,0,187.13,353Z"/><path d="M166.59,445.62a22.05,22.05,0,1,1,22-22.05A22.08,22.08,0,0,1,166.59,445.62Zm0-41.1a19.05,19.05,0,1,0,19,19.05A19.06,19.06,0,0,0,166.59,404.52Z"/><path d="M93.42,341.19a17.1,17.1,0,1,1,17.1-17.1A17.12,17.12,0,0,1,93.42,341.19Zm0-31.2a14.1,14.1,0,1,0,14.1,14.1A14.12,14.12,0,0,0,93.42,310Z"/><path d="M28.15,368.81A9.3,9.3,0,1,1,35.63,354h0a9.3,9.3,0,0,1-7.48,14.81Zm0-15.6a6.3,6.3,0,0,0-5.06,10,6.3,6.3,0,1,0,5.06-10Z"/><path d="M172.48,330.47a15.92,15.92,0,1,1,15.92-15.92A15.93,15.93,0,0,1,172.48,330.47Zm0-28.83a12.92,12.92,0,1,0,12.92,12.91A12.92,12.92,0,0,0,172.48,301.64Z"/><path d="M79.74,320.49l-1.52-1.16a13.27,13.27,0,1,1,21.3-10.56c0,.2,0,.39,0,.59l-.13,2.08-1.82-.56a14.13,14.13,0,0,0-17,7.86Zm6.5-22A10.29,10.29,0,0,0,76,308.77a10.17,10.17,0,0,0,2.72,6.94,17.1,17.1,0,0,1,17.77-8.17A10.3,10.3,0,0,0,86.24,298.49Z"/><path d="M132.24,418.31a14.44,14.44,0,1,1,14.43-14.43A14.45,14.45,0,0,1,132.24,418.31Zm0-25.87a11.44,11.44,0,1,0,11.43,11.44A11.45,11.45,0,0,0,132.24,392.44Z"/><path d="M143.34,400.53l-.69-1.63a11.4,11.4,0,0,0-14.78-6.15l-1.64.66-.38-1.73a12.56,12.56,0,1,1,19,7.9Zm-11.22-11.61A14.44,14.44,0,0,1,144.56,396a9.56,9.56,0,1,0-16-7c0,.13,0,.26,0,.39A14.65,14.65,0,0,1,132.12,388.92Z"/><path d="M98.83,406.86a17.94,17.94,0,0,1-3.32-.32l-1.78-.35.67-1.68a18.8,18.8,0,0,0,1.36-7,19.06,19.06,0,0,0-9.92-16.72l-1.58-.87,1.14-1.39a17.36,17.36,0,1,1,13.43,28.37Zm-1-3a14.36,14.36,0,1,0-8.91-24.71,22,22,0,0,1,9.85,18.36A21.65,21.65,0,0,1,97.82,403.82Z"/><path d="M86.24,447.51a19.44,19.44,0,0,1-16-30.47l.6-.87,1,.28a18.87,18.87,0,0,0,19.55-6.13l.68-.81,1,.37a19.44,19.44,0,0,1-6.85,37.63Zm-14.09-27.9a16.28,16.28,0,0,0-2.35,8.45,16.45,16.45,0,1,0,23.17-15A21.84,21.84,0,0,1,72.15,419.61Z"/><path d="M119.67,459.33a13.15,13.15,0,1,1,13.15-13.15A13.17,13.17,0,0,1,119.67,459.33Zm0-23.3a10.15,10.15,0,1,0,10.15,10.15A10.17,10.17,0,0,0,119.67,436Z"/></g></g></svg>