<svg xmlns="http://www.w3.org/2000/svg" viewBox="0 0 915.72 679.21"><defs><style>.cls-1{fill:#f6dd7f;}</style></defs><g id="Layer_2" data-name="Layer 2"><g id="Layer_1-2" data-name="Layer 1"><path class="cls-1" d="M137.32,31.66c25.56-25.83,95.08-56,170.8,0s95.76,98.75,120.45,135.14C466,222,530.09,227,573.11,208.1s148-148,216.81-156.59S893.16,58.4,913.81,99.69,780.74,235.83,786.48,273.49c8,52.38,81.08,108.47,101.52,130.77,36.93,40.3,46.45,145.57-62,105-75.76-28.38-126.36-89.86-174.5-62.17-93.31,53.69,59,171.27,47,206.42s-103,43.3-263.07-34.13-184.78-60.26-246.06-44.74c-47.77,12.1-139.6,7.84-167-50.83C-18,437.34-6.17,370.34,77.63,362.85c34.45-3.08,69.64-9.15,91.27-56.44,18.67-40.81-34.58-129.28-41.46-146.49S104.18,65.15,137.32,31.66Z"/></g></g></svg>